<svg width="78" height="78" viewBox="0 0 78 78" fill="none" xmlns="http://www.w3.org/2000/svg">
<circle cx="5" cy="5" r="5" fill="#BDBDBD"/>
<circle cx="5" cy="39" r="5" fill="#BDBDBD"/>
<circle cx="5" cy="22" r="5" fill="#BDBDBD"/>
<circle cx="5" cy="56" r="5" fill="#BDBDBD"/>
<circle cx="5" cy="73" r="5" fill="#BDBDBD"/>
<circle cx="22" cy="5" r="5" fill="#BDBDBD"/>
<circle cx="22" cy="39" r="5" fill="#BDBDBD"/>
<circle cx="22" cy="22" r="5" fill="#BDBDBD"/>
<circle cx="22" cy="56" r="5" fill="#BDBDBD"/>
<circle cx="22" cy="73" r="5" fill="#BDBDBD"/>
<circle cx="39" cy="5" r="5" fill="#BDBDBD"/>
<circle cx="39" cy="39" r="5" fill="#BDBDBD"/>
<circle cx="39" cy="22" r="5" fill="#BDBDBD"/>
<circle cx="39" cy="56" r="5" fill="#BDBDBD"/>
<circle cx="39" cy="73" r="5" fill="#BDBDBD"/>
<circle cx="56" cy="5" r="5" fill="#BDBDBD"/>
<circle cx="56" cy="39" r="5" fill="#BDBDBD"/>
<circle cx="56" cy="22" r="5" fill="#BDBDBD"/>
<circle cx="56" cy="56" r="5" fill="#BDBDBD"/>
<circle cx="56" cy="73" r="5" fill="#BDBDBD"/>
<circle cx="73" cy="5" r="5" fill="#BDBDBD"/>
<circle cx="73" cy="39" r="5" fill="#BDBDBD"/>
<circle cx="73" cy="22" r="5" fill="#BDBDBD"/>
<circle cx="73" cy="56" r="5" fill="#BDBDBD"/>
<circle cx="73" cy="73" r="5" fill="#BDBDBD"/>
</svg>
